<mxfile host="app.diagrams.net" modified="2023-04-20T17:37:53.441Z" agent="Mozilla/5.0 (Windows NT 10.0; Win64; x64) AppleWebKit/537.36 (KHTML, like Gecko) Chrome/111.0.0.0 Safari/537.36" version="21.2.1" etag="WEJShg1RzAI3xVCDTOlq" type="github">
  <diagram name="Page-1" id="SN_yCZLMKTXuiHwDD62p">
    <mxGraphModel>
      <root>
        <mxCell id="0" />
        <mxCell id="1" parent="0" />
      </root>
    </mxGraphModel>
  </diagram>
</mxfile>
